<?xml version="1.0" standalone="no"?>
<!DOCTYPE svg PUBLIC "-//W3C//DTD SVG 20010904//EN"
 "http://www.w3.org/TR/2001/REC-SVG-20010904/DTD/svg10.dtd">
<svg version="1.0" xmlns="http://www.w3.org/2000/svg"
 width="195.000000pt" height="222.000000pt" viewBox="0 0 195.000000 222.000000"
 preserveAspectRatio="xMidYMid meet">

<g transform="translate(0.000000,222.000000) scale(0.100000,-0.100000)"
fill="#000000" stroke="none">
<path d="M91 2134 c-54 -45 -62 -135 -19 -197 33 -47 66 -57 187 -57 l110 0
11 -37 c5 -21 24 -94 41 -163 17 -69 35 -129 40 -135 6 -6 183 -12 467 -15
414 -5 461 -7 497 -24 72 -32 125 -97 125 -151 l0 -25 -509 0 c-362 0 -512 -3
-517 -11 -3 -6 4 -64 17 -128 17 -86 29 -122 46 -139 l23 -22 601 2 601 3 23
26 c31 38 43 210 21 316 -45 216 -202 377 -417 428 -50 11 -135 15 -396 15
-307 0 -332 1 -337 18 -3 9 -17 70 -31 136 -14 65 -30 127 -36 137 -23 44 -55
49 -293 49 l-224 0 -31 -26z"/>
<path d="M647 838 c-17 -13 -17 -19 7 -131 14 -65 30 -127 36 -137 15 -29 74
-32 545 -28 326 2 435 6 452 16 34 19 49 58 64 160 12 85 11 94 -4 110 -16 16
-61 17 -550 20 -425 2 -536 0 -550 -10z"/>
<path d="M852 429 c-51 -26 -78 -58 -93 -112 -30 -111 50 -217 164 -217 57 0
94 14 131 48 93 87 69 229 -49 283 -53 24 -100 24 -153 -2z"/>
<path d="M1420 444 c-68 -24 -93 -41 -116 -79 -54 -92 -10 -217 89 -254 74
-28 175 0 219 60 42 56 35 159 -13 214 -37 42 -135 74 -179 59z"/>
</g>
</svg>
